<svg width="24" height="24" viewBox="0 0 24 24" fill="none" xmlns="http://www.w3.org/2000/svg">
<circle cx="12" cy="12" r="12" fill="#CDFB68"/>
<path fill-rule="evenodd" clip-rule="evenodd" d="M3 12.2986C3 7.49854 7.02303 3.60568 11.9876 3.60001V6.74325C8.81704 6.74751 6.25084 9.23345 6.25084 12.2986C6.25084 15.3638 8.82433 17.8568 12.0007 17.8568C15.1771 17.8568 17.7477 15.3922 17.7477 12.2787L21 12.2816C21 17.1043 16.9726 21 12.0007 21C7.02887 21 3 17.1029 3 12.2986ZM8.02859 12.2985C8.02859 10.1675 9.81822 8.43971 12.0209 8.43971C14.2237 8.43971 16.0148 10.1675 16.0148 12.2985C16.0148 14.4295 14.2251 16.1573 12.0209 16.1573C9.81674 16.1573 8.02859 14.4309 8.02859 12.2985ZM17.0774 5.1988C15.8147 5.1988 14.79 6.18834 14.79 7.41072C14.79 8.63167 15.8133 9.62403 17.0774 9.62403C18.3416 9.62403 19.3663 8.63309 19.3663 7.41072C19.3663 6.18834 18.3401 5.1988 17.0774 5.1988Z" fill="#222222"/>
</svg>
