<svg width="24" height="24" viewBox="0 0 24 24" fill="none" xmlns="http://www.w3.org/2000/svg">
<path fill-rule="evenodd" clip-rule="evenodd" d="M2.99757 10.4216C4.66485 10.4216 5.88704 9.27423 5.88704 7.61122C5.88704 5.94821 4.66562 4.80083 2.99757 4.80083C1.33029 4.80083 0.108108 5.94821 0.108108 7.61122C0.108108 9.27423 1.32955 10.4216 2.99757 10.4216ZM14.2587 10.4216C15.926 10.4216 17.1482 9.27423 17.1482 7.61122C17.1482 5.94821 15.926 4.80083 14.2587 4.80083C12.5915 4.80083 11.3693 5.94821 11.3693 7.61122C11.3693 9.27423 12.5915 10.4216 14.2587 10.4216ZM23.027 10.239V6.99572C23.027 5.43259 22.1846 4.80083 21.0461 4.79999C20.2867 4.79999 19.6917 5.16612 19.3451 5.76473H19.312V4.96637H17.9246V10.239H19.3282V7.64437C19.3282 6.49636 19.8401 6.0975 20.5503 6.0975C21.2268 6.0975 21.6234 6.44758 21.6234 7.29534V10.239H23.027ZM6.39897 6.16422V4.96637H10.8904V6.0806L8.06701 9.04112H11.0226V10.239H6.33288V9.10784L9.15625 6.16422H6.39897ZM2.99757 9.12473C2.13896 9.12473 1.57781 8.52549 1.57781 7.61122C1.57781 6.6961 2.13896 6.0975 2.99757 6.0975C3.85618 6.0975 4.41734 6.6961 4.41734 7.61122C4.41734 8.52634 3.85618 9.12473 2.99757 9.12473ZM14.2587 9.12473C13.4001 9.12473 12.839 8.52549 12.839 7.61122C12.839 6.6961 13.4001 6.0975 14.2587 6.0975C15.1173 6.0975 15.6785 6.6961 15.6785 7.61122C15.6785 8.52634 15.1173 9.12473 14.2587 9.12473ZM18.0463 18.7801V13.5299H16.642V15.4341H14.3948V13.5299H12.9904V18.7801H14.3948V16.66H16.642V18.7801H18.0463ZM10.6134 14.2915V13.5299H12.0177V18.7801H10.6134V18.0677H10.5805C10.2997 18.5643 9.68837 18.9621 8.82937 18.9621C7.42496 18.9621 6.33438 17.9522 6.33438 16.1465C6.33438 14.3578 7.45811 13.3642 8.82937 13.3642C9.67148 13.3642 10.3329 13.762 10.5805 14.2915H10.6134ZM1.42122 14.5073C1.76808 13.8783 2.42871 13.4805 3.28774 13.4805C4.67517 13.4805 5.81493 14.5073 5.81493 16.1465C5.81493 17.7865 4.55978 18.9621 2.92399 18.9621C1.27204 18.9621 0 17.7865 0 15.5838C0 13.0996 0.677523 11.5424 2.95708 11.3604L5.28658 11.1784V12.5198L3.18856 12.7187C1.83422 12.8513 1.43737 13.3479 1.38814 14.5073H1.42122ZM7.80556 16.1796C7.80556 17.0578 8.34995 17.687 9.19304 17.687C10.0352 17.687 10.6134 17.0409 10.6134 16.1627C10.6134 15.2683 10.0352 14.6393 9.19304 14.6393C8.35093 14.6393 7.80556 15.2854 7.80556 16.1796ZM1.4697 16.1636C1.4697 17.0741 2.09803 17.687 2.90709 17.687C3.71693 17.687 4.34449 17.0741 4.34449 16.1636C4.34449 15.236 3.71693 14.6893 2.90709 14.6893C2.09729 14.6893 1.4697 15.236 1.4697 16.1636ZM20.3163 16.263L22.2157 18.7801L24 18.7795L21.6544 15.9144L23.8024 13.5299H22.0675L20.3163 15.6995V13.5299H18.9119V18.7801H20.3163V16.263Z" fill="#005BFF"/>
</svg>
