<svg width="40" height="40" viewBox="0 0 40 40" fill="none" xmlns="http://www.w3.org/2000/svg">
<path d="M35.3517 7.77026C36.2891 8.99861 37.0828 10.3331 37.7165 11.7469L19.7397 25.1769L12.2268 20.404V14.6619L19.7397 19.4349L35.3517 7.77026Z" fill="#21A038"/>
<path d="M4.55927 19.9993C4.55927 19.7417 4.56547 19.4857 4.57787 19.2312L0.0247968 19.0051C0.00929965 19.3349 5.50217e-06 19.6679 5.50217e-06 20.004C-0.0019317 22.6298 0.507688 25.23 1.49964 27.6556C2.49159 30.0813 3.94634 32.2846 5.78045 34.1391L9.01005 30.8677C7.59822 29.4426 6.47822 27.7488 5.7144 25.8836C4.95058 24.0185 4.55802 22.0187 4.55927 19.9993Z" fill="url(#paint0_linear_14_7882)"/>
<path d="M19.7357 4.62042C19.9898 4.62042 20.2423 4.62985 20.4934 4.64241L20.7212 0.0265021C20.3948 0.0107964 20.0662 0.00294452 19.7357 0.00294452C17.1435 -0.000259062 14.5764 0.515474 12.1816 1.52053C9.78672 2.52559 7.61136 4.00017 5.7804 5.85962L9.01001 9.13268C10.4162 7.70139 12.0877 6.5659 13.9284 5.79152C15.7691 5.01715 17.7426 4.61915 19.7357 4.62042Z" fill="url(#paint1_linear_14_7882)"/>
<path d="M19.7357 35.3798C19.4816 35.3798 19.2289 35.3798 18.9764 35.3594L18.7486 39.9737C19.0761 39.9904 19.4052 39.9989 19.7357 39.9989C22.3268 40.0016 24.8926 39.4855 27.2862 38.4802C29.6798 37.4748 31.8537 36 33.6833 34.1406L30.4598 30.8691C29.0534 32.2997 27.3821 33.4345 25.5417 34.2086C23.7014 34.9827 21.7283 35.3808 19.7357 35.3798Z" fill="url(#paint2_linear_14_7882)"/>
<path d="M28.2905 7.30319L32.1275 4.43689C28.6204 1.55876 24.2426 -0.00798939 19.7297 3.06379e-05V4.61908C22.7856 4.61524 25.7706 5.55117 28.2905 7.30319Z" fill="url(#paint3_linear_14_7882)"/>
<path d="M39.4699 20.0001C39.4724 18.7985 39.3687 17.5989 39.1599 16.416L34.9122 19.5886C34.9122 19.7253 34.9122 19.8619 34.9122 20.0001C34.9133 22.1491 34.4688 24.2743 33.6076 26.238C32.7463 28.2017 31.4875 29.9601 29.9128 31.3992L32.9766 34.831C35.0239 32.9579 36.6598 30.6698 37.7784 28.1149C38.8971 25.5599 39.4733 22.7952 39.4699 20.0001Z" fill="#21A038"/>
<path d="M19.7357 35.3804C17.6151 35.3811 15.518 34.9305 13.5801 34.0577C11.6423 33.1849 9.90686 31.9093 8.48632 30.3137L5.10175 33.4172C6.94972 35.4923 9.20742 37.1505 11.7285 38.2845C14.2495 39.4184 16.9775 40.0027 19.7357 39.9994V35.3804Z" fill="url(#paint4_linear_14_7882)"/>
<path d="M9.55867 8.60016L6.49642 5.16846C4.44858 7.04117 2.81201 9.3292 1.69285 11.8842C0.573697 14.4391 -0.0030512 17.2039 1.21392e-05 19.9993H4.55928C4.55834 17.8505 5.0029 15.7252 5.86412 13.7615C6.72535 11.7978 7.98405 10.0394 9.55867 8.60016Z" fill="url(#paint5_linear_14_7882)"/>
<defs>
<linearGradient id="paint0_linear_14_7882" x1="6.70253" y1="33.5628" x2="1.60155" y2="19.0127" gradientUnits="userSpaceOnUse">
<stop offset="0.14" stop-color="#F1E813"/>
<stop offset="0.3" stop-color="#E6E418"/>
<stop offset="0.58" stop-color="#C9DA26"/>
<stop offset="0.89" stop-color="#A2CC39"/>
</linearGradient>
<linearGradient id="paint1_linear_14_7882" x1="7.08216" y1="6.67631" x2="19.9553" y2="1.83568" gradientUnits="userSpaceOnUse">
<stop offset="0.06" stop-color="#0FA7DF"/>
<stop offset="0.54" stop-color="#0098F8"/>
<stop offset="0.92" stop-color="#0290EA"/>
</linearGradient>
<linearGradient id="paint2_linear_14_7882" x1="18.448" y1="37.2111" x2="32.975" y2="33.9728" gradientUnits="userSpaceOnUse">
<stop offset="0.12" stop-color="#A2CC39"/>
<stop offset="0.28" stop-color="#86C239"/>
<stop offset="0.87" stop-color="#219F38"/>
</linearGradient>
<linearGradient id="paint3_linear_14_7882" x1="18.7814" y1="1.54704" x2="31.2138" y2="5.3327" gradientUnits="userSpaceOnUse">
<stop offset="0.06" stop-color="#0290EA"/>
<stop offset="0.79" stop-color="#0C89CA"/>
</linearGradient>
<linearGradient id="paint4_linear_14_7882" x1="6.24543" y1="32.8549" x2="19.7904" y2="37.8499" gradientUnits="userSpaceOnUse">
<stop offset="0.13" stop-color="#F1E813"/>
<stop offset="0.3" stop-color="#EAE616"/>
<stop offset="0.53" stop-color="#D8DF1F"/>
<stop offset="0.8" stop-color="#BAD52D"/>
<stop offset="0.98" stop-color="#A2CC39"/>
</linearGradient>
<linearGradient id="paint5_linear_14_7882" x1="1.6985" y1="20.5584" x2="7.24536" y2="6.32068" gradientUnits="userSpaceOnUse">
<stop offset="0.07" stop-color="#A2CC39"/>
<stop offset="0.26" stop-color="#81C45E"/>
<stop offset="0.92" stop-color="#0FA7DF"/>
</linearGradient>
</defs>
</svg>
