<svg width="24" height="24" viewBox="0 0 24 24" fill="none" xmlns="http://www.w3.org/2000/svg">
<path fill-rule="evenodd" clip-rule="evenodd" d="M16.4669 9.44262C17.2433 8.93335 18.1531 8.63726 19.1599 8.63726C21.8529 8.63726 24 10.698 24 13.3391C24 15.9802 21.8044 18.0646 19.1478 18.0646C16.4912 18.0646 14.3198 15.9683 14.3198 13.3628V4.79999H16.4669V9.44262ZM16.4669 13.3509C16.4669 14.8314 17.6921 15.9683 19.1478 15.9683C20.6277 15.9683 21.8529 14.784 21.8529 13.3509C21.8529 11.9179 20.7005 10.7454 19.1599 10.7454C17.6193 10.7454 16.4669 11.8705 16.4669 13.3509ZM7.79998 8.96883L9.76513 13.9667L11.7424 8.96883H14.0715L10.6264 17.7567H9.12223L7.03573 12.5219L4.96143 17.7567H3.45722L0 8.96883H2.34121L4.31849 13.9667L6.2958 8.96883H7.79998Z" fill="white"/>
</svg>
