<svg width="24" height="24" viewBox="0 0 24 24" fill="none" xmlns="http://www.w3.org/2000/svg">
<path fill-rule="evenodd" clip-rule="evenodd" d="M12 0C18.6274 0 24 5.37258 24 12C24 18.6274 18.6274 24 12 24C5.37258 24 0 18.6274 0 12C0 5.37258 5.37258 0 12 0ZM12.5166 4.46484C8.6934 4.46484 6.67398 6.4352 6.67383 9.33203C6.67383 11.65 7.78234 13.0244 9.75293 14.4316L6.32617 19.5312H9.1582L12.9668 13.8193L11.6416 12.9268C10.0339 11.8513 9.25688 11.0069 9.25684 9.18555C9.25684 7.5801 10.3833 6.50397 12.5342 6.50391H13.708V19.5332H16.3418V19.5283H16.3242V4.46484H12.5166Z" fill="white"/>
</svg>
