<svg width="24" height="24" viewBox="0 0 24 24" fill="none" xmlns="http://www.w3.org/2000/svg">
<path d="M12 24C18.6274 24 24 18.6274 24 12C24 5.37258 18.6274 0 12 0C5.37258 0 0 5.37258 0 12C0 18.6274 5.37258 24 12 24Z" fill="black"/>
<path d="M16.3421 19.5331H13.7079V6.50437H12.5344C10.3833 6.50437 9.25658 7.5799 9.25658 9.18539C9.25658 11.0069 10.0337 11.8508 11.6414 12.9263L12.9664 13.8193L9.15861 19.5309H6.32617L9.75315 14.4316C7.78247 13.0243 6.67355 11.6504 6.67355 9.33235C6.67355 6.43534 8.69322 4.46466 12.5166 4.46466H16.3243V19.5287H16.3421V19.5331Z" fill="white"/>
</svg>
