<svg preserveAspectRatio="none" width="100%" height="100%" overflow="visible" style="display: block;" viewBox="0 0 19.9991 19.9995" fill="none" xmlns="http://www.w3.org/2000/svg">
<g id="graph">
<path id="Vector" d="M19.6675 4.94951C19.0275 2.77951 17.2175 0.969512 15.0475 0.329512C13.3975 -0.150488 12.2575 -0.110488 11.4675 0.479512C10.5175 1.18951 10.4075 2.46951 10.4075 3.37951V5.86951C10.4075 8.32951 11.5275 9.57951 13.7275 9.57951H16.5975C17.4975 9.57951 18.7875 9.46951 19.4975 8.51951C20.1075 7.73951 20.1575 6.59951 19.6675 4.94951Z" fill="currentColor"/>
<path id="Vector_2" d="M16.9075 11.3595C16.6475 11.0595 16.2675 10.8895 15.8775 10.8895H12.2975C10.5375 10.8895 9.10746 9.45951 9.10746 7.69951V4.11951C9.10746 3.72951 8.93746 3.34951 8.63746 3.08951C8.34746 2.82951 7.94746 2.70951 7.56746 2.75951C5.21746 3.05951 3.05746 4.34951 1.64746 6.28951C0.227457 8.23951 -0.292543 10.6195 0.157457 12.9995C0.807457 16.4395 3.55746 19.1895 7.00746 19.8395C7.55746 19.9495 8.10746 19.9995 8.65746 19.9995C10.4675 19.9995 12.2175 19.4395 13.7075 18.3495C15.6475 16.9395 16.9375 14.7795 17.2375 12.4295C17.2875 12.0395 17.1675 11.6495 16.9075 11.3595Z" fill="currentColor"/>
</g>
</svg>
