<svg preserveAspectRatio="none" width="100%" height="100%" overflow="visible" style="display: block;" viewBox="0 0 20.1281 20.1202" fill="none" xmlns="http://www.w3.org/2000/svg">
<g id="graph">
<g id="Vector">
<path d="M10.7967 0.497948C11.6782 -0.13649 12.9134 -0.11295 14.3855 0.279198L14.6834 0.362206L14.6844 0.363182C16.9783 1.03801 18.9424 2.95169 19.6961 5.22353L19.7654 5.44424C20.2347 7.0477 20.3074 8.39161 19.6306 9.33193C18.9438 10.2862 17.7113 10.5185 16.4324 10.5185H13.2429C12.1657 10.5185 11.1995 10.2476 10.5232 9.49697C9.86294 8.76405 9.61014 7.7155 9.61014 6.46279V3.69619C9.61014 2.41722 9.8423 1.1848 10.7967 0.497948ZM11.1101 6.46279C11.1101 7.55451 11.3379 8.15947 11.6385 8.49306C11.9231 8.80869 12.3989 9.01846 13.2429 9.01846H16.4324C17.6511 9.01846 18.1868 8.76972 18.4129 8.45596C18.6489 8.12798 18.779 7.41417 18.326 5.86611C17.7727 3.98827 16.1386 2.35402 14.2605 1.80166C12.7138 1.34919 12.0006 1.47885 11.6726 1.71474C11.3587 1.94068 11.1101 2.477 11.1101 3.69619V6.46279Z" fill="currentColor"/>
<path d="M7.57757 1.35587C7.98339 1.27318 8.37958 1.53598 8.46233 1.9418C8.54482 2.3475 8.28307 2.74382 7.87737 2.82657C3.82894 3.65206 0.895682 7.55113 1.60784 11.974C2.15216 15.2972 4.83255 17.9765 8.15374 18.5111C12.5931 19.232 16.4937 16.2828 17.311 12.2152C17.3925 11.8091 17.7887 11.5458 18.1948 11.6273C18.6007 11.7091 18.8632 12.1042 18.7817 12.5102C17.8116 17.3394 13.18 20.8461 7.91546 19.9916C3.95434 19.3539 0.775028 16.1733 0.127373 12.2143L0.126396 12.2123C-0.717652 6.96948 2.76731 2.3367 7.57757 1.35587Z" fill="currentColor"/>
</g>
</g>
</svg>
