<svg preserveAspectRatio="none" width="100%" height="100%" overflow="visible" style="display: block;" viewBox="0 0 19.5 21.5" fill="none" xmlns="http://www.w3.org/2000/svg">
<g id="calendar">
<path id="Vector (Stroke)" d="M18 8.58984H1.5V15.75C1.5 17.135 1.84664 18.1742 2.4873 18.8643C3.11869 19.5442 4.14295 20 5.75 20H13.75C15.357 20 16.3813 19.5442 17.0127 18.8643C17.6534 18.1742 18 17.135 18 15.75V8.58984ZM13 3.75V3H6.5V3.75C6.5 4.16421 6.16421 4.5 5.75 4.5C5.33579 4.5 5 4.16421 5 3.75V3.03711C3.81506 3.15752 3.01432 3.56819 2.4873 4.13574C1.87158 4.7989 1.52877 5.78466 1.50293 7.08984H17.9971C17.9712 5.78466 17.6284 4.7989 17.0127 4.13574C16.4857 3.56819 15.6849 3.15752 14.5 3.03711V3.75C14.5 4.16421 14.1642 4.5 13.75 4.5C13.3358 4.5 13 4.16421 13 3.75ZM19.5 15.75C19.5 17.365 19.0966 18.8258 18.1123 19.8857C17.1187 20.9557 15.6429 21.5 13.75 21.5H5.75C3.85712 21.5 2.38131 20.9557 1.3877 19.8857C0.403424 18.8258 0 17.365 0 15.75V7.25C0 5.63503 0.403424 4.17424 1.3877 3.11426C2.24599 2.19001 3.46415 1.6581 5 1.53027V0.75C5 0.335786 5.33579 0 5.75 0C6.16421 0 6.5 0.335786 6.5 0.75V1.5H13V0.75C13 0.335786 13.3358 0 13.75 0C14.1642 0 14.5 0.335786 14.5 0.75V1.53027C16.0358 1.6581 17.254 2.19001 18.1123 3.11426C19.0966 4.17424 19.5 5.63503 19.5 7.25V15.75Z" fill="currentColor"/>
<path id="Vector" d="M13.4447 12.45H13.4537M13.4447 15.45H13.4537M9.74548 12.45H9.75447M9.74548 15.45H9.75447M6.04431 12.45H6.05329M6.04431 15.45H6.05329" stroke="currentColor" stroke-width="2" stroke-linecap="round" stroke-linejoin="round"/>
</g>
</svg>
