<svg preserveAspectRatio="none" width="100%" height="100%" overflow="visible" style="display: block;" viewBox="0 0 19.9791 19.9792" fill="none" xmlns="http://www.w3.org/2000/svg">
<g id="convert">
<path id="Vector (Stroke)" d="M18.571 12.704C18.571 12.3152 18.8862 12 19.2751 12C19.6639 12 19.9791 12.3152 19.9791 12.704C19.9791 16.7257 16.7257 19.9792 12.704 19.9792C12.4503 19.9792 12.2166 19.8424 12.0916 19.6216C11.9668 19.401 11.9695 19.1304 12.0998 18.913L13.0862 17.2702C13.2862 16.937 13.7182 16.8285 14.0516 17.0282C14.3849 17.2282 14.4935 17.6611 14.2936 17.9945L14.0396 18.4162C16.6383 17.8125 18.571 15.4883 18.571 12.704Z" fill="currentColor"/>
<path id="Vector (Stroke)_2" d="M0 7.27513C0 3.25342 3.25342 0 7.27513 0C7.52877 0 7.76253 0.136799 7.8875 0.357523C8.01233 0.578128 8.00956 0.848745 7.87925 1.06615L6.89285 2.70892C6.69287 3.04217 6.26089 3.15065 5.92754 2.95094C5.59418 2.75092 5.48563 2.3181 5.68553 1.98471L5.93854 1.5621C3.34025 2.16598 1.40809 4.49112 1.40809 7.27513C1.40809 7.66396 1.09288 7.97917 0.704044 7.97917C0.315211 7.97917 0 7.66396 0 7.27513Z" fill="currentColor"/>
<path id="Union" fill-rule="evenodd" clip-rule="evenodd" d="M12.7449 1.54963C15.8969 1.54963 18.4489 4.10166 18.449 7.25373C18.4488 10.3328 16.0137 12.8368 12.9626 12.951C12.8531 16.0062 10.3465 18.4459 7.26439 18.4461C4.11246 18.4461 1.5605 15.8949 1.56029 12.743C1.56034 9.6641 3.99498 7.15843 7.04564 7.04377C7.15579 3.98908 9.66314 1.54984 12.7449 1.54963ZM7.26439 8.27521C4.7952 8.27525 2.79667 10.2738 2.79662 12.743C2.79683 15.212 4.79528 17.2097 7.26439 17.2098C9.73335 17.2096 11.731 15.2119 11.7312 12.743C11.7312 12.6843 11.7294 12.6275 11.7273 12.5633C11.7256 12.5122 11.724 12.453 11.7234 12.3924C11.5526 10.2057 9.80519 8.45845 7.61791 8.28986C7.4733 8.28134 7.37227 8.27523 7.26439 8.27521ZM12.7449 2.78595C10.3221 2.78617 8.35406 4.71016 8.28099 7.11506C10.62 7.53408 12.4641 9.37773 12.8835 11.7166C15.2885 11.6436 17.2124 9.6765 17.2126 7.25373C17.2126 4.78449 15.2141 2.78595 12.7449 2.78595Z" fill="currentColor"/>
</g>
</svg>
