<svg preserveAspectRatio="none" width="100%" height="100%" overflow="visible" style="display: block;" viewBox="0 0 19.961 19.9643" fill="none" xmlns="http://www.w3.org/2000/svg">
<g id="convert">
<g id="Group">
<path id="Vector" d="M19.2675 12C18.8833 12 18.5647 12.3186 18.5647 12.7028C18.5647 15.4762 16.6346 17.7999 14.0391 18.409L14.2921 17.9873C14.4889 17.65 14.3858 17.219 14.0485 17.0222C13.7206 16.8255 13.2802 16.9285 13.0834 17.2659L12.0996 18.9056C11.9684 19.1211 11.9684 19.3928 12.0902 19.6083C12.212 19.8332 12.4463 19.9643 12.6993 19.9643C16.7001 19.9643 19.9608 16.7037 19.9608 12.7028C19.9702 12.3186 19.6516 12 19.2675 12Z" fill="currentColor"/>
<path id="Vector_2" d="M7.26157 4.13656e-05C3.26068 4.13656e-05 0 3.26072 0 7.26161C0 7.64577 0.318572 7.96435 0.702733 7.96435C1.08689 7.96435 1.40547 7.64577 1.40547 7.26161C1.40547 4.48816 3.33564 2.16446 5.93106 1.55542L5.67808 1.97706C5.48132 2.31437 5.58438 2.74538 5.92169 2.94215C6.24964 3.13891 6.69002 3.03585 6.88678 2.69854L7.87061 1.05883C7.99241 0.843321 8.00178 0.580967 7.87061 0.356093C7.7488 0.140588 7.51456 4.13656e-05 7.26157 4.13656e-05Z" fill="currentColor"/>
</g>
<path id="Vector_3" d="M18.4325 7.22386C18.4325 10.0485 16.3782 12.378 13.6911 12.809C13.6911 12.7999 13.6911 12.7999 13.6911 12.7907C13.4251 9.36989 10.6554 6.58189 7.18878 6.30675C7.61982 3.61963 9.94927 1.56531 12.774 1.56531C15.9013 1.56531 18.4325 4.09653 18.4325 7.22386Z" fill="currentColor"/>
<path id="Vector_4" d="M12.7924 12.3766C12.583 9.61801 10.3798 7.41478 7.62123 7.20539C7.47557 7.19628 7.339 7.18718 7.18423 7.18718C4.07969 7.18718 1.56692 9.69994 1.56692 12.8136C1.56692 15.9181 4.07969 18.4309 7.18423 18.4309C10.2888 18.4309 12.8106 15.9181 12.8106 12.8136C12.8106 12.6588 12.8015 12.5223 12.7924 12.3766Z" fill="currentColor"/>
</g>
</svg>
