<svg preserveAspectRatio="none" width="100%" height="100%" overflow="visible" style="display: block;" viewBox="0 0 21.5003 21.5" fill="none" xmlns="http://www.w3.org/2000/svg">
<g id="elements">
<path id="Subtract" d="M10.7506 0C11.6165 9.91747e-05 12.3905 0.277117 13.2262 0.746094C14.0361 1.20058 14.9645 1.87107 16.1315 2.71484L17.6403 3.80566C18.5768 4.4828 19.3251 5.02384 19.8893 5.52441C20.4718 6.04128 20.9078 6.55694 21.1842 7.20508C21.4612 7.85455 21.528 8.52055 21.4909 9.28809C21.455 10.0288 21.3174 10.9227 21.1461 12.0371L20.8307 14.0889C20.5874 15.6725 20.3937 16.9336 20.109 17.916C19.8146 18.9319 19.4001 19.739 18.6588 20.3555C17.9208 20.9693 17.0414 21.2426 15.9674 21.373C14.9225 21.5 13.604 21.5 11.9391 21.5H9.56118C7.89627 21.5 6.57778 21.5 5.53286 21.373C4.45894 21.2426 3.57951 20.9693 2.84145 20.3555C2.10022 19.7389 1.68565 18.9319 1.39126 17.916C1.10658 16.9336 0.912923 15.6725 0.669579 14.0889L0.354149 12.0371C0.182877 10.9227 0.0453033 10.0289 0.00942242 9.28809C-0.027737 8.52056 0.0391127 7.85455 0.316063 7.20508C0.592501 6.55695 1.02845 6.04127 1.61098 5.52441C2.17518 5.02384 2.92347 4.4828 3.86001 3.80566L5.3688 2.71484C6.53576 1.87108 7.46418 1.20058 8.27407 0.746094C9.10995 0.277033 9.88457 0 10.7506 0ZM8.75063 15.75C8.19835 15.75 7.75063 16.1977 7.75063 16.75C7.75081 17.3021 8.19846 17.75 8.75063 17.75H12.7506C13.3026 17.7498 13.7505 17.302 13.7506 16.75C13.7506 16.1978 13.3028 15.7502 12.7506 15.75H8.75063Z" fill="currentColor"/>
</g>
</svg>
