<svg preserveAspectRatio="none" width="100%" height="100%" overflow="visible" style="display: block;" viewBox="0 0 24 24" fill="none" xmlns="http://www.w3.org/2000/svg">
<g id="Nav icons">
<path id="Union" d="M12.0008 1.25C12.8666 1.25017 13.6418 1.52718 14.4774 1.99609C15.287 2.45054 16.2153 3.12147 17.3817 3.96484L18.8915 5.05566C19.8276 5.73254 20.5754 6.27399 21.1395 6.77441C21.7219 7.29117 22.158 7.80708 22.4344 8.45508C22.7114 9.10448 22.7782 9.77066 22.7411 10.5381C22.7052 11.2787 22.5686 12.1729 22.3973 13.2871L22.0819 15.3389C21.8386 16.9223 21.6448 18.1836 21.3602 19.166C21.0659 20.1817 20.6499 20.989 19.909 21.6055C19.1711 22.219 18.2912 22.4926 17.2176 22.623C16.1729 22.7499 14.8538 22.75 13.1893 22.75H10.8124C9.14789 22.75 7.82883 22.7499 6.78404 22.623C5.71027 22.4926 4.83063 22.219 4.09263 21.6055C3.3514 20.989 2.93585 20.1819 2.64146 19.166C2.3568 18.1836 2.16311 16.9224 1.91978 15.3389L1.60435 13.2871C1.43309 12.1728 1.29648 11.2788 1.2606 10.5381C1.22346 9.77058 1.29025 9.10454 1.56724 8.45508C1.84369 7.80717 2.27976 7.29115 2.86216 6.77441C3.42624 6.27405 4.17416 5.73245 5.11021 5.05566L6.61997 3.96484C7.78634 3.1215 8.71467 2.45046 9.52427 1.99609C10.3599 1.52727 11.135 1.25 12.0008 1.25ZM12.0008 2.80957C11.498 2.80957 10.9903 2.9618 10.287 3.35645C9.57313 3.75711 8.72754 4.36653 7.53404 5.22949H7.53306L6.02329 6.31934C5.0648 7.01235 4.39025 7.50416 3.89732 7.94141C3.41183 8.37215 3.15503 8.70834 3.00181 9.06738C2.84958 9.42446 2.78771 9.8325 2.81822 10.4629C2.84932 11.1044 2.9708 11.9076 3.14634 13.0498L3.46177 15.1016C3.71102 16.7236 3.88954 17.8686 4.1395 18.7314C4.38534 19.5798 4.67544 20.0617 5.0897 20.4062L5.25279 20.5293C5.64925 20.8033 6.16737 20.9765 6.97154 21.0742C7.90113 21.1871 9.11107 21.1904 10.8124 21.1904H13.1893C14.8905 21.1904 16.0996 21.1871 17.0292 21.0742C17.948 20.9626 18.4939 20.753 18.911 20.4062C19.3251 20.0617 19.6154 19.5796 19.8612 18.7314C20.1111 17.8686 20.2907 16.7235 20.5399 15.1016L20.8553 13.0498C21.0308 11.9078 21.1514 11.1044 21.1825 10.4629C21.213 9.83247 21.1511 9.42447 20.9989 9.06738C20.8457 8.70825 20.5889 8.37223 20.1034 7.94141C19.857 7.72288 19.5656 7.49037 19.2157 7.22656L17.9774 6.32031L16.4676 5.22949C15.2739 4.36639 14.4276 3.75716 13.7137 3.35645C13.0105 2.96183 12.5035 2.80973 12.0008 2.80957ZM13.9999 17C14.5519 17.0002 14.9997 17.4479 14.9999 18C14.9997 18.552 14.5519 18.9998 13.9999 19H9.99986C9.44794 18.9997 9.00003 18.5519 8.99986 18C8.99999 17.448 9.44791 17.0003 9.99986 17H13.9999Z" fill="currentColor"/>
</g>
</svg>
