<svg preserveAspectRatio="none" width="100%" height="100%" overflow="visible" style="display: block;" viewBox="0 0 19.2873 20.7217" fill="none" xmlns="http://www.w3.org/2000/svg">
<g id="Setting">
<path id="Union" d="M10.2691 9.26697e-08C10.9887 -0.000189538 11.6787 0.290659 12.1802 0.806641C12.6749 1.31562 12.9437 2.00115 12.9312 2.70996H12.9322C12.9337 2.8527 12.9633 2.99362 13.0191 3.12402L13.0836 3.25098L13.0855 3.25391C13.2405 3.51815 13.495 3.71012 13.7916 3.78711C14.0879 3.86385 14.4028 3.81944 14.6666 3.66406L15.0367 4.29199L14.6744 3.66016C15.9482 2.93046 17.5732 3.36869 18.3062 4.64063L18.9283 5.7207C18.9484 5.75557 18.9649 5.79273 18.9791 5.83008C19.6283 7.08218 19.1898 8.63294 17.9615 9.35156L17.5826 8.7041L17.9556 9.35547C17.7821 9.45495 17.6382 9.59892 17.5386 9.77246L17.5357 9.77734C17.3812 10.0426 17.3385 10.3586 17.4175 10.6553C17.4967 10.9519 17.6906 11.2052 17.9566 11.3584C18.5686 11.7106 19.0158 12.2924 19.1978 12.9746C19.3798 13.657 19.2818 14.3848 18.9263 14.9951L18.9215 15.0029L18.2672 16.0918L18.2681 16.0928C17.5312 17.3596 15.9086 17.7929 14.6383 17.0625L14.5064 16.9971C14.3739 16.9417 14.2317 16.9106 14.0875 16.9053C13.7812 16.905 13.4868 17.0266 13.2701 17.2432C13.0525 17.4609 12.9307 17.7566 12.9322 18.0645L12.1822 18.0684L12.9322 18.0713C12.9252 19.5369 11.7347 20.7215 10.2691 20.7217H9.01521C7.54707 20.7215 6.35615 19.5336 6.35212 18.0664C6.35009 17.8763 6.29776 17.6899 6.20075 17.5264L6.19489 17.5156C6.04335 17.251 5.79218 17.0575 5.49763 16.9785C5.20281 16.8996 4.88821 16.942 4.62458 17.0957L4.24665 16.4482L4.61286 17.1025C3.99516 17.4486 3.26468 17.5342 2.58356 17.3408C1.90652 17.1484 1.33306 16.6955 0.988838 16.082L0.357978 14.9932L1.00642 14.6172L0.357002 14.9922C-0.374978 13.7237 0.0590295 12.1016 1.32673 11.3682C1.6863 11.1604 1.90864 10.7766 1.90876 10.3613C1.90876 9.94593 1.6864 9.56131 1.32673 9.35352L1.70173 8.7041L1.32478 9.35254C0.0572329 8.61515 -0.376089 6.99131 0.356025 5.7207L0.365791 5.70605L1.03376 4.60742C1.77098 3.34726 3.3871 2.91476 4.65583 3.6416L4.28278 4.29199L4.6656 3.64746C4.82813 3.74385 5.0138 3.79525 5.20271 3.79785C5.79696 3.79568 6.28765 3.34825 6.35407 2.76953L6.36188 2.65234C6.36229 1.95154 6.63979 1.27929 7.13435 0.782227C7.63233 0.281957 8.30933 7.0447e-05 9.01521 9.26697e-08H10.2691ZM9.01521 1.5C8.70848 1.50007 8.41428 1.62253 8.19782 1.83984C7.98133 2.05738 7.86048 2.35228 7.86188 2.65918L7.11188 2.66309L7.86188 2.67383C7.84098 4.12939 6.65443 5.2986 5.1988 5.29883H5.19099C4.74066 5.29415 4.29896 5.1713 3.91071 4.94336L3.80427 4.88965C3.26693 4.65011 2.62508 4.85069 2.32478 5.37109C2.32184 5.37618 2.31807 5.3817 2.31501 5.38672L1.65192 6.47656C1.33806 7.02969 1.52717 7.73334 2.07673 8.05469C2.90051 8.53043 3.40876 9.41002 3.40876 10.3613C3.40864 11.3124 2.90021 12.1903 2.07673 12.666C1.52618 12.9847 1.33775 13.69 1.65485 14.2412L2.28669 15.3301C2.28902 15.3341 2.29126 15.3387 2.29353 15.3428C2.44344 15.6132 2.6954 15.8128 2.99274 15.8975C3.25326 15.9714 3.53094 15.9523 3.77692 15.8447L3.87946 15.7939C4.48639 15.4437 5.20808 15.3481 5.88532 15.5293C6.56653 15.7117 7.14744 16.1594 7.49763 16.7715H7.49665C7.72455 17.1596 7.84738 17.6006 7.85212 18.0508L7.10212 18.0586H7.85212C7.85212 18.7008 8.373 19.2215 9.01521 19.2217H10.2691C10.9091 19.2215 11.4291 18.7045 11.4322 18.0645C11.4307 17.3589 11.7106 16.6817 12.2095 16.1826C12.7104 15.6819 13.391 15.4019 14.0992 15.4053H14.1158C14.5609 15.4173 14.9968 15.5388 15.3834 15.7598L15.0113 16.4111L15.3853 15.7617C15.9401 16.0811 16.6492 15.8921 16.9713 15.3389L17.6031 15.7061L16.9761 15.3301L17.6304 14.2393C17.7848 13.974 17.8277 13.6579 17.7486 13.3613C17.6695 13.0648 17.4746 12.8113 17.2086 12.6582C16.5966 12.3059 16.1503 11.7243 15.9683 11.042C15.8091 10.445 15.8636 9.81404 16.1177 9.25684L16.2388 9.02246C16.4699 8.62102 16.8033 8.28782 17.2047 8.05664L17.3033 7.99219C17.776 7.64755 17.9234 6.99548 17.6275 6.47656L18.2789 6.10449H18.2633L17.6285 6.46973L17.0064 5.38965C16.6877 4.83674 15.9825 4.64351 15.4273 4.95605C14.8204 5.31348 14.0964 5.41605 13.4146 5.23926C12.7325 5.06215 12.1481 4.62056 11.7916 4.0127V4.01172C11.5612 3.62195 11.4369 3.17836 11.4322 2.72559L12.1822 2.71777L11.4332 2.69629C11.4421 2.38224 11.323 2.07787 11.1041 1.85254C10.8851 1.62731 10.5842 1.50005 10.2701 1.5H9.01521ZM9.64606 6.97461C11.516 6.97461 13.0324 8.49053 13.0328 10.3604C13.0328 12.2305 11.5162 13.7471 9.64606 13.7471C7.77623 13.7467 6.26032 12.2303 6.26032 10.3604C6.26068 8.49074 7.77645 6.97495 9.64606 6.97461ZM9.64606 8.47461C8.60488 8.47495 7.76068 9.31917 7.76032 10.3604C7.76032 11.4018 8.60466 12.2467 9.64606 12.2471C10.6878 12.2471 11.5328 11.402 11.5328 10.3604C11.5324 9.31896 10.6875 8.47461 9.64606 8.47461Z" fill="currentColor"/>
</g>
</svg>
